<?xml version="1.0" encoding="utf-8"?>
<!-- Generator: Adobe Illustrator 19.0.0, SVG Export Plug-In . SVG Version: 6.00 Build 0)  -->
<svg version="1.1" id="Layer_1" xmlns="http://www.w3.org/2000/svg" xmlns:xlink="http://www.w3.org/1999/xlink" x="0px" y="0px"
	 viewBox="0 0 188 188" style="enable-background:new 0 0 188 188;" xml:space="preserve">
<style type="text/css">
	.st0{fill:#FFFFFF;}
	.st1{fill:#333;}
	.st2{fill:#63B6AC;}
</style>
<g id="outline">
	<circle id="XMLID_2_" class="st0" cx="94" cy="94" r="91"/>
	<path id="XMLID_14_" class="st1" d="M94,188c-51.8,0-94-42.2-94-94C0,42.2,42.2,0,94,0c51.8,0,94,42.2,94,94
		C188,145.8,145.8,188,94,188z M94,6C45.5,6,6,45.5,6,94s39.5,88,88,88s88-39.5,88-88S142.5,6,94,6z"/>
</g>
<path id="gear" class="st2" d="M153.5,88.5l5.4-3.6l-6.2-2c-2.3-0.7-3-3.6-1.2-5.3l4.6-4.5l-6.4-0.8c-2.4-0.3-3.6-3-2.2-5l3.7-5.3
	l-6.5,0.4c-2.4,0.1-4.1-2.3-3.1-4.5l2.5-5.4c-0.2-0.1-0.3-0.2-0.4-0.3l-5.7,1.4c-2.3,0.6-4.4-1.5-3.8-3.8l1.6-6.3l-5.9,2.7
	c-2.2,1-4.6-0.7-4.5-3.1l0.4-6.5l-5.3,3.7c-1.9,1.4-4.7,0.2-5-2.2l-0.8-6.4l-4.5,4.6c-1.7,1.7-4.5,1-5.3-1.2l-2-6.2l-3.6,5.4
	c-1.3,2-4.3,1.8-5.4-0.3L91,28.5l-2.5,6c-0.9,2.2-3.9,2.6-5.4,0.7l-4.1-5l-1.4,6.3c-0.5,2.3-3.3,3.3-5.1,1.7l-4.9-4.2l-0.2,6.5
	c-0.1,2.4-2.7,3.8-4.7,2.6L57,39.9l1,6.4c0.4,2.4-1.9,4.3-4.2,3.5l-6.1-2.1l2.1,6.1c0.8,2.3-1.1,4.5-3.5,4.2l-6.4-1l3.2,5.6
	c1.2,2.1-0.3,4.7-2.6,4.7l-6.5,0.2l4.2,4.9c1.5,1.8,0.6,4.6-1.7,5.1L30.2,79l5,4.1c1.9,1.5,1.4,4.4-0.7,5.4l-6,2.5l5.7,3.1
	c2.1,1.1,2.2,4.1,0.3,5.4l-5.4,3.6l6.2,2c2.3,0.7,3,3.6,1.2,5.3l-4.6,4.5l6.4,0.8c2.4,0.3,3.6,3,2.2,5l-3.7,5.3l6.5-0.4
	c2.4-0.1,4.1,2.3,3.1,4.5l-2.7,5.9l6.3-1.6c2.3-0.6,4.4,1.5,3.8,3.8l-1.6,6.3l5.9-2.7c2.2-1,4.6,0.7,4.5,3.1l-0.4,6.5l5.3-3.7
	c1.9-1.4,4.7-0.2,5,2.2l0.8,6.4l4.5-4.6c1.7-1.7,4.5-1,5.3,1.2l2,6.2l3.6-5.4c1.3-2,4.3-1.8,5.4,0.3l3.1,5.7l2.5-6
	c0.9-2.2,3.9-2.6,5.4-0.7l4.1,5l1.4-6.3c0.5-2.3,3.3-3.3,5.1-1.7l4.9,4.2l0.2-6.5c0.1-2.4,2.7-3.8,4.7-2.6l5.6,3.2l-1-6.4
	c-0.4-2.4,1.9-4.3,4.2-3.5l6.1,2.1l-2.1-6.1c-0.8-2.3,1.1-4.5,3.5-4.2l6.4,1l-3.2-5.6c-1.2-2.1,0.3-4.7,2.6-4.7l6.5-0.2l-4.2-4.9
	c-1.5-1.8-0.6-4.6,1.7-5.1l6.3-1.4l-5-4.1c-1.9-1.5-1.4-4.4,0.7-5.4l6-2.5l-5.7-3.1C151.7,92.8,151.5,89.9,153.5,88.5z M120.8,56.9
	c2.8-2.8,7.5-2.8,10.3,0c2.8,2.8,2.8,7.5,0,10.3c-2.8,2.8-7.5,2.8-10.3,0C117.9,64.4,117.9,59.8,120.8,56.9z M94,41.6
	c4,0,7.3,3.3,7.3,7.3c0,4-3.3,7.3-7.3,7.3c-4,0-7.3-3.3-7.3-7.3C86.7,44.8,90,41.6,94,41.6z M56.9,56.9c2.8-2.8,7.5-2.8,10.3,0
	c2.8,2.8,2.8,7.5,0,10.3c-2.8,2.8-7.5,2.8-10.3,0C54.1,64.4,54.1,59.8,56.9,56.9z M48.8,101.3c-4,0-7.3-3.3-7.3-7.3
	c0-4,3.3-7.3,7.3-7.3c4,0,7.3,3.3,7.3,7.3C56.1,98,52.9,101.3,48.8,101.3z M67.2,131.1c-2.8,2.8-7.5,2.8-10.3,0
	c-2.8-2.8-2.8-7.5,0-10.3c2.8-2.8,7.5-2.8,10.3,0C70.1,123.6,70.1,128.2,67.2,131.1z M94,146.4c-4,0-7.3-3.3-7.3-7.3
	c0-4,3.3-7.3,7.3-7.3c4,0,7.3,3.3,7.3,7.3C101.3,143.2,98,146.4,94,146.4z M111.9,111.9c-9.9,9.9-26,9.9-35.9,0
	c-9.9-9.9-9.9-26,0-35.9c9.9-9.9,26-9.9,35.9,0C121.9,86,121.9,102,111.9,111.9z M131.1,131.1c-2.8,2.8-7.5,2.8-10.3,0
	c-2.8-2.8-2.8-7.5,0-10.3c2.8-2.8,7.5-2.8,10.3,0C133.9,123.6,133.9,128.2,131.1,131.1z M139.2,101.3c-4,0-7.3-3.3-7.3-7.3
	s3.3-7.3,7.3-7.3c4,0,7.3,3.3,7.3,7.3S143.2,101.3,139.2,101.3z"/>
</svg>
