<?xml version="1.0" encoding="utf-8"?>
<!-- Generator: Adobe Illustrator 19.0.0, SVG Export Plug-In . SVG Version: 6.00 Build 0)  -->
<svg version="1.1" id="Layer_1" xmlns="http://www.w3.org/2000/svg" xmlns:xlink="http://www.w3.org/1999/xlink" x="0px" y="0px"
	 viewBox="10 -10.2 183.8 36.3" style="enable-background:new 10 -10.2 183.8 36.3;" xml:space="preserve">
<style type="text/css">
	.st0{fill:#EC284F;}
</style>
<path id="logo" class="st0" d="M44.6,6.4l1.5-1l-1.7-0.5c-0.6-0.2-0.8-1-0.3-1.5l1.3-1.3l-1.8-0.2c-0.7-0.1-1-0.8-0.6-1.4L44-1
	l-1.8,0.1c-0.7,0-1.1-0.6-0.8-1.2L42-3.6l0,0l-1.7,0.4c-0.6,0.2-1.2-0.4-1.1-1.1L39.6-6L38-5.3c-0.6,0.3-1.3-0.2-1.2-0.8l0.1-1.8
	l-1.5,1c-0.5,0.4-1.3,0-1.4-0.6l-0.2-1.8L32.5-8C32-7.5,31.2-7.7,31-8.3L30.5-10l-1,1.5C29.1-8,28.3-8,28-8.6l-0.7-1.6l-0.7,1.7
	c-0.3,0.6-1.1,0.7-1.5,0.2L24-9.7l-0.4,1.8c-0.1,0.6-0.9,0.9-1.4,0.5l-1.4-1.2l-0.1,1.8c0,0.6-0.7,1-1.3,0.6L17.9-7l0.3,1.8
	c0.1,0.7-0.5,1.2-1.2,1l-1.7-0.7l0.6,1.7c0.2,0.6-0.3,1.3-1,1.2l-1.7-0.3L14-0.8c0.4,0.6,0,1.3-0.7,1.3l-1.8,0.1L12.7,2
	c0.4,0.5,0.2,1.3-0.5,1.4l-1.7,0.4l1.4,1.1c0.5,0.4,0.4,1.2-0.2,1.5L10,7.1L11.6,8c0.6,0.3,0.6,1.1,0.1,1.5l-1.5,1l1.7,0.5
	c0.6,0.2,0.8,1,0.3,1.5l-1.3,1.3l1.8,0.2c0.7,0.1,1,0.8,0.6,1.4l-1,1.5l1.8-0.1c0.7,0,1.1,0.6,0.8,1.2l-0.7,1.6l1.7-0.4
	c0.6-0.2,1.2,0.4,1.1,1.1L16.6,22l1.6-0.7c0.6-0.3,1.3,0.2,1.2,0.8l-0.1,1.7l1.5-1c0.5-0.4,1.3,0,1.4,0.6l0.2,1.8l1.3-1.3
	c0.5-0.5,1.3-0.3,1.5,0.3l0.5,1.7l1-1.5c0.4-0.5,1.2-0.5,1.5,0.1l0.9,1.6l0.7-1.7c0.3-0.6,1.1-0.7,1.5-0.2l1.1,1.4l0.4-1.8
	c0.1-0.6,0.9-0.9,1.4-0.5l1.4,1.2l0.1-1.8c0-0.7,0.7-1.1,1.3-0.7l1.6,0.9l-0.3-1.8c-0.1-0.7,0.5-1.2,1.2-1l1.7,0.6L40.6,19
	c-0.2-0.6,0.3-1.3,1-1.2l1.8,0.3l-0.9-1.6c-0.3-0.6,0.1-1.3,0.7-1.3L45,15l-1.2-1.4c-0.4-0.5-0.2-1.3,0.5-1.4l1.8-0.4l-1.4-1.1
	c-0.5-0.4-0.4-1.2,0.2-1.5l1.7-0.7L45,7.6C44.1,7.6,44,6.8,44.6,6.4z M15.5,10.6c-0.6,0.4-1.3-0.1-1.3-0.7V6.1
	c0-0.7,0.7-1.1,1.3-0.7l3.1,1.9c0.6,0.3,0.6,1.2,0,1.5L15.5,10.6z M21.9,15.1L21,18.7c-0.2,0.7-1,0.9-1.5,0.4l-2.7-2.7
	c-0.5-0.5-0.3-1.3,0.4-1.5l3.6-0.9C21.5,13.9,22.1,14.5,21.9,15.1z M20.9,1.7l-3.6-0.9c-0.7-0.2-0.9-1-0.4-1.5l2.7-2.7
	c0.5-0.5,1.3-0.3,1.5,0.4L22,0.6C22.1,1.3,21.5,1.9,20.9,1.7z M26.2-6H30c0.7,0,1.1,0.7,0.7,1.3l-1.9,3.1c-0.3,0.6-1.2,0.6-1.5,0
	l-1.9-3.1C25.1-5.3,25.5-6,26.2-6z M30,21.9h-3.8c-0.7,0-1.1-0.7-0.7-1.3l1.9-3.1c0.3-0.6,1.2-0.6,1.5,0l1.9,3.1
	C31.1,21.1,30.7,21.9,30,21.9z M31.2,11c-1.7,1.7-4.4,1.7-6.1,0c-1.7-1.7-1.7-4.4,0-6.1c1.7-1.7,4.4-1.7,6.1,0
	C32.9,6.5,32.9,9.3,31.2,11z M34.3,0.7l0.9-3.6c0.2-0.7,1-0.9,1.5-0.4l2.7,2.7c0.5,0.5,0.3,1.3-0.4,1.5l-3.6,0.9
	C34.7,1.9,34.1,1.3,34.3,0.7z M39.3,16.4l-2.7,2.7c-0.5,0.5-1.3,0.3-1.5-0.4l-0.9-3.6c-0.2-0.6,0.4-1.2,1.1-1.1l3.6,0.9
	C39.6,15.1,39.8,15.9,39.3,16.4z M40.7,10.6l-3.1-1.9c-0.6-0.3-0.6-1.2,0-1.5l3.1-1.9C41.3,4.9,42,5.4,42,6v3.8
	C42.1,10.5,41.3,10.9,40.7,10.6z"/>
<g>
	<path class="st0" d="M50.3-6.2h6.9c2.6,0,4.6,0.5,6,1.6c1.4,1.1,2.1,2.9,2.1,5.4c0,3.5-1.3,5.5-4,5.9c3.2,0.6,4.8,2.9,4.8,6.9
		c0,2.7-0.6,4.7-1.9,6.1c-1.3,1.4-3.3,2.1-5.8,2.1h-8V-6.2z M57.1,5.2c1.5,0,2.5-0.3,3-1c0.5-0.7,0.8-1.7,0.8-3.2
		c0-1.4-0.3-2.4-1-2.9c-0.7-0.5-1.9-0.8-3.5-0.8h-1v7.8H57.1z M57.3,18.1c1.5,0,2.5-0.4,3.1-1.1c0.6-0.7,0.9-1.9,0.9-3.5
		c0-1.7-0.3-2.9-0.9-3.7c-0.6-0.8-1.7-1.2-3.2-1.2h-1.8v9.4H57.3z"/>
	<path class="st0" d="M69.3-5.2H74v3.9h-4.7V-5.2z M69.3,1.8H74v19.9h-4.7V1.8z"/>
	<path class="st0" d="M77.7-6.2h4.6v16l5.1-8h5.1l-5,8l4.9,11.9h-4.9L84,11.9l-1.6,2.2v7.6h-4.6V-6.2z"/>
	<path class="st0" d="M95.5,20.2c-1-1.2-1.5-3-1.5-5.5V8.8c0-2.4,0.5-4.3,1.6-5.5c1-1.2,2.7-1.8,4.8-1.8c2.2,0,3.8,0.6,4.8,1.9
		c0.9,1.3,1.4,3.2,1.4,5.7V12h-7.9v3.1c0,1.2,0.1,2.1,0.3,2.7c0.2,0.6,0.7,0.9,1.4,0.9c0.6,0,1.1-0.2,1.3-0.6
		c0.3-0.4,0.4-1.1,0.4-1.9v-1.7h4.4v1.4c0,2-0.5,3.6-1.5,4.7c-1,1.1-2.6,1.6-4.6,1.6C98.2,22,96.5,21.4,95.5,20.2z M102.1,9.7V7.8
		c0-1-0.1-1.8-0.4-2.2c-0.3-0.4-0.7-0.7-1.3-0.7c-0.7,0-1.1,0.2-1.4,0.7c-0.3,0.5-0.4,1.4-0.4,2.7v1.4H102.1z"/>
	<path class="st0" d="M118.8-6.2h5.3l4,19.3l4.1-19.3h5.1l0.5,27.9h-3.8l-0.4-19.4l-4,19.4h-3.1l-4-19.4l-0.4,19.4h-3.8L118.8-6.2z"
		/>
	<path class="st0" d="M142.7,20.2c-1-1.2-1.5-3-1.5-5.5V8.8c0-2.4,0.5-4.3,1.6-5.5c1-1.2,2.7-1.8,4.8-1.8c2.2,0,3.8,0.6,4.8,1.9
		c0.9,1.3,1.4,3.2,1.4,5.7V12h-7.9v3.1c0,1.2,0.1,2.1,0.3,2.7c0.2,0.6,0.7,0.9,1.4,0.9c0.6,0,1.1-0.2,1.3-0.6
		c0.3-0.4,0.4-1.1,0.4-1.9v-1.7h4.4v1.4c0,2-0.5,3.6-1.5,4.7c-1,1.1-2.6,1.6-4.6,1.6C145.3,22,143.7,21.4,142.7,20.2z M149.3,9.7
		V7.8c0-1-0.1-1.8-0.4-2.2c-0.3-0.4-0.7-0.7-1.3-0.7c-0.7,0-1.1,0.2-1.4,0.7c-0.3,0.5-0.4,1.4-0.4,2.7v1.4H149.3z"/>
	<path class="st0" d="M157.7,20.3c-0.8-1.1-1.2-2.9-1.2-5.4V8.8c0-2.2,0.4-4,1.1-5.3c0.7-1.3,2-2,3.6-2c1.3,0,2.5,0.5,3.6,1.6v-9.2
		h4.7v27.9h-4.7v-1.4c-1.1,1.1-2.3,1.7-3.6,1.7C159.7,22,158.5,21.4,157.7,20.3z M164.9,18.1V5.4c-0.6-0.4-1.2-0.7-1.9-0.7
		c-1.2,0-1.8,1-1.8,3.1v7.4c0,1.1,0.1,2,0.4,2.6s0.7,0.9,1.4,0.9C163.6,18.8,164.2,18.5,164.9,18.1z"/>
	<path class="st0" d="M173.3-5.2h4.7v3.9h-4.7V-5.2z M173.3,1.8h4.7v19.9h-4.7V1.8z"/>
	<path class="st0" d="M182.8,20.1c-1-1.2-1.5-3-1.5-5.4v-6c0-2.4,0.5-4.2,1.5-5.4s2.6-1.9,4.8-1.9c2.1,0,3.7,0.5,4.6,1.5
		c1,1,1.5,2.5,1.5,4.6v1.7h-4.4V7.5c0-1-0.1-1.7-0.4-2.1c-0.2-0.4-0.7-0.6-1.3-0.6c-0.7,0-1.1,0.2-1.4,0.7C186.1,6,186,6.9,186,8.2
		v7.3c0,1.2,0.1,2.1,0.4,2.5c0.3,0.5,0.7,0.7,1.3,0.7c0.6,0,1.1-0.2,1.3-0.6c0.2-0.4,0.3-1.1,0.3-2v-2.1h4.4v1.9
		c0,2-0.5,3.6-1.5,4.6c-1,1.1-2.5,1.6-4.6,1.6C185.4,22,183.8,21.4,182.8,20.1z"/>
</g>
</svg>
