<?xml version="1.0" encoding="utf-8"?>
<!-- Generator: Adobe Illustrator 19.0.0, SVG Export Plug-In . SVG Version: 6.00 Build 0)  -->
<svg version="1.1" id="Layer_1" xmlns="http://www.w3.org/2000/svg" xmlns:xlink="http://www.w3.org/1999/xlink" x="0px" y="0px"
	 viewBox="-770 374 188 188" style="enable-background:new -770 374 188 188;" xml:space="preserve">
<style type="text/css">
	.st0{fill:#333;}
	.st1{fill:#63B6AC;}
</style>
<g id="Layer_1_1_">
	<g id="outline">
		<path id="XMLID_14_" class="st0" d="M-676,562c-51.8,0-94-42.2-94-94s42.2-94,94-94s94,42.2,94,94S-624.2,562-676,562z M-676,380
			c-48.5,0-88,39.5-88,88s39.5,88,88,88s88-39.5,88-88S-627.5,380-676,380z"/>
	</g>
	<path id="LargeGear" class="st1" d="M-678,434.1l2.5-2.3l-3.4-0.5c-1.2-0.2-1.8-1.6-1.1-2.6l2-2.7h-3.3c-1.2,0-2.1-1.3-1.5-2.4
		l1.5-3l-3.3,0.7c-1.2,0.3-2.3-0.9-2-2.1l0.8-3c-0.1,0-0.2-0.1-0.2-0.1l-2.8,1.2c-1.1,0.5-2.4-0.4-2.3-1.7l0.3-3.4l-2.8,1.9
		c-1,0.7-2.4,0-2.6-1.2l-0.3-3.4l-2.4,2.4c-0.9,0.9-2.4,0.5-2.7-0.7l-1-3.3l-1.9,2.8c-0.7,1-2.3,0.9-2.8-0.2l-1.5-3l-1.6,3.2
		c-0.5,1.1-2.1,1.3-2.8,0.3l-2.1-2.7l-0.8,3.3c-0.3,1.2-1.8,1.7-2.7,0.8l-2.5-2.3l-0.2,3.4c-0.1,1.2-1.4,2-2.5,1.3l-2.9-1.8l0.4,3.4
		c0.2,1.2-1.1,2.2-2.2,1.8l-3.2-1.2l1,3.2c0.4,1.2-0.6,2.4-1.9,2.1l-3.3-0.6l1.6,3c0.6,1.1-0.2,2.4-1.4,2.4h-3.4l2.1,2.6
		c0.8,1,0.3,2.4-1,2.7l-3.3,0.6l2.6,2.2c1,0.8,0.7,2.3-0.5,2.8l-3.2,1.2l2.9,1.7c1.1,0.6,1.1,2.2,0.1,2.8l-2.7,2l3.2,1.1
		c1.2,0.4,1.5,1.9,0.6,2.8l-2.5,2.3l3.4,0.5c1.2,0.2,1.8,1.6,1.1,2.6l-2,2.7l3.4-0.1c1.2,0,2.1,1.3,1.5,2.4l-1.5,3l3.3-0.7
		c1.2-0.3,2.3,0.9,2,2.1l-1,3.3l3.1-1.3c1.1-0.5,2.4,0.4,2.3,1.7l-0.3,3.4l2.8-1.9c1-0.7,2.4,0,2.6,1.2l0.3,3.4l2.4-2.4
		c0.9-0.9,2.4-0.5,2.7,0.7l1,3.3l1.9-2.8c0.7-1,2.3-0.9,2.8,0.2l1.5,3l1.4-3.1c0.5-1.1,2.1-1.3,2.8-0.3l2.1,2.7l0.8-3.3
		c0.3-1.2,1.8-1.7,2.7-0.8l2.5,2.3l0.2-3.4c0.1-1.2,1.4-2,2.5-1.3l2.9,1.8l-0.4-3.4c-0.2-1.2,1.1-2.2,2.2-1.8l3.2,1.2l-1-3.2
		c-0.4-1.2,0.6-2.4,1.9-2.1l3.3,0.6l-1.6-3c-0.6-1.1,0.2-2.4,1.4-2.4h3.4l-2.1-2.6c-0.8-1-0.3-2.4,1-2.7l3.3-0.6l-2.6-2.2
		c-1-0.8-0.7-2.3,0.5-2.8l3.2-1.2l-2.9-1.7c-1.1-0.6-1.1-2.2-0.1-2.8l2.9-1.8l-3.2-1.1C-678.5,436.4-678.9,434.9-678,434.1z
		 M-697.5,420.6c1.2-1.7,3.6-2.1,5.3-0.9s2.1,3.6,0.9,5.3c-1.2,1.7-3.6,2.1-5.3,0.9C-698.3,424.6-698.6,422.3-697.5,420.6z
		 M-712.5,414.9c2.1-0.3,4,1.1,4.4,3.2c0.3,2.1-1.1,4-3.2,4.4c-2.1,0.3-4-1.1-4.4-3.2C-716,417.1-714.6,415.1-712.5,414.9z
		 M-730.5,425.9c1.2-1.7,3.6-2.1,5.3-0.9s2.1,3.6,0.9,5.3c-1.2,1.7-3.6,2.1-5.3,0.9C-731.3,429.9-731.6,427.6-730.5,425.9z
		 M-731,449.5c-2.1,0.3-4-1.1-4.4-3.2c-0.3-2.1,1.1-4,3.2-4.4c2.1-0.3,4,1.1,4.4,3.2C-727.5,447.1-728.9,449-731,449.5z M-719,463.3
		c-1.2,1.7-3.6,2.1-5.3,0.9s-2.1-3.6-0.9-5.3c1.2-1.7,3.6-2.1,5.3-0.9C-718.1,459.1-717.8,461.5-719,463.3z M-703.9,469
		c-2.1,0.3-4-1.1-4.4-3.2c-0.3-2.1,1.1-4,3.2-4.4c2.1-0.3,4,1.1,4.4,3.2C-700.4,466.6-701.8,468.6-703.9,469z M-697.5,449.6
		c-4.3,5.9-12.6,7.3-18.5,3s-7.3-12.6-3-18.5s12.6-7.3,18.5-3C-694.5,435.4-693.1,443.8-697.5,449.6z M-686,458
		c-1.2,1.7-3.6,2.1-5.3,0.9s-2.1-3.6-0.9-5.3c1.2-1.7,3.6-2.1,5.3-0.9C-685.1,453.9-684.8,456.3-686,458z M-684.3,441.9
		c-2.1,0.3-4-1.1-4.4-3.2c-0.3-2.1,1.1-4,3.2-4.4c2.1-0.3,4,1.1,4.4,3.2C-680.8,439.6-682.1,441.6-684.3,441.9z"/>
	<path id="smallGear" class="st1" d="M-612.6,504l1.6-1.3l-2-0.5c-0.7-0.2-1-1.1-0.5-1.7l1.4-1.6l-2.1-0.1c-0.8,0-1.2-0.9-0.8-1.5
		l1.1-1.8l-2.1,0.3c-0.8,0.1-1.4-0.6-1.1-1.3l0.6-1.8c-0.1,0-0.1,0-0.1-0.1l-1.8,0.6c-0.7,0.3-1.5-0.4-1.3-1.1l0.3-2.1l-1.8,1
		c-0.7,0.4-1.5-0.1-1.5-0.9l-0.1-2.1l-1.6,1.3c-0.6,0.5-1.5,0.2-1.7-0.6l-0.4-2l-1.3,1.6c-0.5,0.6-1.4,0.5-1.7-0.2l-0.8-1.9l-1,1.8
		c-0.4,0.7-1.3,0.7-1.7,0.1l-1.1-1.7l-0.6,2c-0.2,0.7-1.2,0.9-1.7,0.4l-1.5-1.5l-0.3,2.1c-0.1,0.8-1,1.1-1.6,0.7l-1.7-1.2l0.1,2.1
		c0,0.8-0.7,1.3-1.4,1l-1.9-0.9l0.5,2c0.2,0.7-0.5,1.4-1.2,1.2l-2-0.5l0.9,1.9c0.3,0.7-0.2,1.5-1,1.4l-2.1-0.1l1.2,1.7
		c0.4,0.6,0.1,1.5-0.7,1.6l-2.1,0.3l1.5,1.5c0.5,0.5,0.3,1.5-0.4,1.7l-2,0.6l1.7,1.2c0.6,0.4,0.6,1.4-0.1,1.7l-1.8,1l1.9,0.8
		c0.7,0.3,0.8,1.3,0.2,1.7l-1.6,1.3l2,0.5c0.7,0.2,1,1.1,0.5,1.7l-1.4,1.6l2.1,0.1c0.8,0,1.2,0.9,0.8,1.5l-1.1,1.8l2.1-0.3
		c0.8-0.1,1.4,0.6,1.1,1.3l-0.7,2l2-0.7c0.7-0.3,1.5,0.4,1.3,1.1l-0.3,2.1l1.8-1c0.7-0.4,1.5,0.1,1.5,0.9l0.1,2.1l1.6-1.3
		c0.6-0.5,1.5-0.2,1.7,0.6l0.4,2l1.3-1.6c0.5-0.6,1.4-0.5,1.7,0.2l0.8,1.9l1-1.8c0.4-0.7,1.3-0.7,1.7-0.1l1.1,1.7l0.6-2
		c0.2-0.7,1.2-0.9,1.7-0.4l1.5,1.5l0.3-2.1c0.1-0.8,1-1.1,1.6-0.7l1.7,1.2l-0.1-2.1c0-0.8,0.7-1.3,1.4-1l1.9,0.9l-0.5-2
		c-0.2-0.7,0.5-1.4,1.2-1.2l2,0.5l-0.9-1.9c-0.3-0.7,0.2-1.5,1-1.4l2.1,0.1l-1.2-1.7c-0.4-0.6-0.1-1.5,0.7-1.6l2.1-0.3l-1.5-1.5
		c-0.5-0.5-0.3-1.5,0.4-1.7l2-0.6l-1.7-1.2c-0.6-0.4-0.6-1.4,0.1-1.7l1.8-1l-1.9-0.8C-613.1,505.4-613.3,504.4-612.6,504z
		 M-624.1,494.6c0.8-1,2.3-1.1,3.3-0.3c1,0.8,1.1,2.3,0.3,3.3s-2.3,1.1-3.3,0.3C-624.8,497.1-624.9,495.6-624.1,494.6z
		 M-633.1,490.5c1.3-0.1,2.4,0.8,2.5,2.1c0.1,1.3-0.8,2.4-2.1,2.5s-2.4-0.8-2.5-2.1C-635.4,491.8-634.4,490.6-633.1,490.5z
		 M-644.5,496.5c0.8-1,2.3-1.1,3.3-0.3c1,0.8,1.1,2.3,0.3,3.3c-0.8,1-2.3,1.1-3.3,0.3S-645.4,497.5-644.5,496.5z M-645.9,511
		c-1.3,0.1-2.4-0.8-2.5-2.1c-0.1-1.3,0.8-2.4,2.1-2.5s2.4,0.8,2.5,2.1C-643.6,509.8-644.5,510.9-645.9,511z M-639.1,520
		c-0.8,1-2.3,1.1-3.3,0.3s-1.1-2.3-0.3-3.3c0.8-1,2.3-1.1,3.3-0.3C-638.4,517.5-638.4,519-639.1,520z M-630.1,524.1
		c-1.3,0.1-2.4-0.8-2.5-2.1c-0.1-1.3,0.8-2.4,2.1-2.5s2.4,0.8,2.5,2.1C-627.9,523-628.9,524-630.1,524.1z M-625.4,512.5
		c-2.9,3.5-8.1,3.9-11.5,1c-3.5-2.9-3.9-8.1-1-11.5c2.9-3.5,8.1-3.9,11.5-1C-622.9,504-622.4,509.1-625.4,512.5z M-618.6,518.1
		c-0.8,1-2.3,1.1-3.3,0.3c-1-0.8-1.1-2.3-0.3-3.3s2.3-1.1,3.3-0.3C-617.9,515.8-617.9,517.1-618.6,518.1z M-616.9,508.4
		c-1.3,0.1-2.4-0.8-2.5-2.1c-0.1-1.3,0.8-2.4,2.1-2.5s2.4,0.8,2.5,2.1C-614.6,507.1-615.6,508.3-616.9,508.4z"/>
	<path id="chain" class="st1" d="M-630.8,532.4c-5.7,0-11-1.9-15.5-5.4l-79.7-49.7c-12.3-6-20.9-18.2-22.3-31.8l-0.2-1.1l0-0.5
		c-0.1-1-0.1-1.9-0.1-2.7c0-22.2,18-40.2,40.2-40.2c12.7,0,24.7,6.1,32.3,16.2l62.6,72.4c4.8,4.7,7.5,11.1,7.5,17.8
		C-605.9,521.2-617.1,532.4-630.8,532.4z M-746.3,444.8L-746.3,444.8l0.1,0.3c1.3,13,9.5,24.7,21.3,30.5h0.1l79.8,49.9
		c4.1,3.3,9,5,14.3,5c12.6,0,22.9-10.3,22.9-22.9c0-6.2-2.5-12-6.9-16.4l-0.1-0.1l-62.7-72.5c-7.3-9.9-18.5-15.5-30.7-15.5
		c-21.1,0-38.2,17.1-38.2,38.2c0,0.9,0,1.9,0.1,3.1L-746.3,444.8L-746.3,444.8z"/>
</g>
</svg>
