<?xml version="1.0" encoding="utf-8"?>
<!-- Generator: Adobe Illustrator 19.0.0, SVG Export Plug-In . SVG Version: 6.00 Build 0)  -->
<svg version="1.1" xmlns="http://www.w3.org/2000/svg" xmlns:xlink="http://www.w3.org/1999/xlink" x="0px" y="0px"
	 viewBox="0 0 188 188" style="enable-background:new 0 0 188 188;" xml:space="preserve">
<style type="text/css">
	.st0{fill:#FFFFFF;}
	.st1{fill:#333;}
	.st2{fill:#63B6AC;}
</style>
<g id="Layer_1">
	<g id="outline">
		<circle id="XMLID_2_" class="st0" cx="94" cy="94" r="91"/>
		<path id="XMLID_14_" class="st1" d="M94,188c-51.8,0-94-42.2-94-94C0,42.2,42.2,0,94,0c51.8,0,94,42.2,94,94
			C188,145.8,145.8,188,94,188z M94,6C45.5,6,6,45.5,6,94s39.5,88,88,88s88-39.5,88-88S142.5,6,94,6z"/>
	</g>
	<g id="XMLID_48_">
		<path id="LargeGear" class="st2" d="M109.6,69.1l3.1-2.4l-3.8-1c-1.4-0.4-1.9-2.1-0.9-3.1l2.6-2.9l-3.9-0.3
			c-1.4-0.1-2.3-1.7-1.5-2.9l2.1-3.3l-3.9,0.5c-1.4,0.2-2.5-1.2-2-2.6l1.3-3.4c-0.1,0-0.2-0.1-0.2-0.2l-3.4,1.1
			c-1.4,0.4-2.7-0.8-2.4-2.2l0.7-3.9L94,44.4c-1.3,0.7-2.8-0.3-2.8-1.7l0-3.9l-3.1,2.4c-1.1,0.9-2.8,0.3-3.1-1.1l-0.7-3.9l-2.6,3
			c-0.9,1.1-2.7,0.8-3.2-0.6L77.1,35l-2,3.4c-0.7,1.2-2.5,1.3-3.3,0l-2.1-3.3l-1.3,3.7c-0.5,1.4-2.2,1.7-3.2,0.6l-2.6-2.9L62,40.4
			c-0.2,1.4-1.9,2.1-3,1.2l-3.1-2.4l0.1,3.9c0,1.4-1.5,2.4-2.8,1.8l-3.5-1.8l0.8,3.8c0.3,1.4-1,2.6-2.4,2.2l-3.8-1.1l1.5,3.6
			c0.6,1.3-0.5,2.8-1.9,2.6L40,54l2.1,3.3c0.8,1.2,0,2.8-1.4,3l-3.9,0.4l2.7,2.8c1,1,0.5,2.8-0.9,3.2l-3.8,1.1L38,70
			c1.2,0.8,1,2.6-0.3,3.3L34.3,75l3.6,1.7c1.3,0.6,1.5,2.4,0.3,3.3L35,82.2l3.8,1c1.4,0.4,1.9,2.1,0.9,3.1l-2.6,2.9l3.9,0.3
			c1.4,0.1,2.3,1.7,1.5,2.9l-2.1,3.3l3.9-0.5c1.4-0.2,2.5,1.2,2,2.6l-1.4,3.7l3.7-1.2c1.4-0.4,2.7,0.8,2.4,2.2l-0.7,3.9l3.5-1.8
			c1.3-0.7,2.8,0.3,2.8,1.7l0,3.9l3.1-2.4c1.1-0.9,2.8-0.3,3.1,1.1l0.7,3.9l2.6-3c0.9-1.1,2.7-0.8,3.2,0.6l1.4,3.7l2-3.4
			c0.7-1.2,2.5-1.3,3.3,0l2.1,3.3l1.3-3.7c0.5-1.4,2.2-1.7,3.2-0.6l2.6,2.9l0.6-3.9c0.2-1.4,1.9-2.1,3-1.2l3.1,2.4l-0.1-3.9
			c0-1.4,1.5-2.4,2.8-1.8l3.5,1.8l-0.8-3.8c-0.3-1.4,1-2.6,2.4-2.2l3.8,1.1l-1.5-3.6c-0.6-1.3,0.5-2.8,1.9-2.6l3.9,0.4l-2.1-3.3
			c-0.8-1.2,0-2.8,1.4-3l3.9-0.4l-2.7-2.8c-1-1-0.5-2.8,0.9-3.2l3.8-1.1l-3.2-2.3c-1.2-0.8-1-2.6,0.3-3.3l3.5-1.7l-3.6-1.7
			C108.7,71.8,108.5,70,109.6,69.1z M88.8,51.2c1.6-1.8,4.4-2,6.2-0.4c1.8,1.6,2,4.4,0.4,6.2c-1.6,1.8-4.4,2-6.2,0.4
			C87.3,55.8,87.2,53,88.8,51.2z M72.1,42.8c2.4-0.1,4.5,1.7,4.7,4.1c0.1,2.4-1.7,4.5-4.1,4.7c-2.4,0.1-4.5-1.7-4.7-4.1
			C67.8,45.1,69.7,43,72.1,42.8z M50.2,53.4c1.6-1.8,4.4-2,6.2-0.4c1.8,1.6,2,4.4,0.4,6.2c-1.6,1.8-4.4,2-6.2,0.4
			C48.8,58,48.6,55.2,50.2,53.4z M46.9,80.5c-2.4,0.1-4.5-1.7-4.7-4.1c-0.1-2.4,1.7-4.5,4.1-4.7c2.4-0.1,4.5,1.7,4.7,4.1
			C51.2,78.3,49.3,80.3,46.9,80.5z M59,97.8c-1.6,1.8-4.4,2-6.2,0.4c-1.8-1.6-2-4.4-0.4-6.2c1.6-1.8,4.4-2,6.2-0.4
			C60.5,93.2,60.6,96,59,97.8z M75.7,106.2c-2.4,0.1-4.5-1.7-4.7-4.1c-0.1-2.4,1.7-4.5,4.1-4.7c2.4-0.1,4.5,1.7,4.7,4.1
			C80,104,78.2,106,75.7,106.2z M85.4,84.7C79.7,91.1,70,91.6,63.7,86c-6.3-5.6-6.9-15.3-1.2-21.7c5.6-6.3,15.3-6.9,21.7-1.2
			C90.4,68.7,91,78.4,85.4,84.7z M97.6,95.6c-1.6,1.8-4.4,2-6.2,0.4c-1.8-1.6-2-4.4-0.4-6.2c1.6-1.8,4.4-2,6.2-0.4
			C99,91,99.2,93.8,97.6,95.6z M101.4,77.3c-2.4,0.1-4.5-1.7-4.7-4.1c-0.1-2.4,1.7-4.5,4.1-4.7c2.4-0.1,4.5,1.7,4.7,4.1
			C105.7,75.1,103.9,77.2,101.4,77.3z"/>
		<path id="MedGear" class="st2" d="M135.3,126.9l2.2-1.6l-2.7-0.8c-1-0.3-1.3-1.5-0.6-2.2l1.9-2l-2.8-0.2c-1-0.1-1.6-1.2-1-2.1
			l1.5-2.3l-2.8,0.3c-1,0.1-1.8-0.9-1.4-1.9l1-2.4c-0.1,0-0.1-0.1-0.2-0.1l-2.4,0.7c-1,0.3-1.9-0.6-1.7-1.6l0.6-2.7l-2.5,1.2
			c-0.9,0.5-2-0.2-1.9-1.2l0.1-2.8l-2.2,1.7c-0.8,0.6-2,0.1-2.1-0.9l-0.4-2.7l-1.9,2c-0.7,0.8-1.9,0.5-2.3-0.5l-0.9-2.6l-1.5,2.4
			c-0.5,0.9-1.8,0.9-2.3,0l-1.4-2.4l-1,2.6c-0.4,0.9-1.6,1.2-2.3,0.4l-1.8-2.1l-0.5,2.7c-0.2,1-1.4,1.4-2.2,0.8l-2.2-1.7l0,2.8
			c0,1-1.1,1.7-2,1.2l-2.4-1.3l0.5,2.7c0.2,1-0.8,1.8-1.7,1.5l-2.6-0.8l1,2.6c0.4,0.9-0.4,1.9-1.4,1.8l-2.7-0.3l1.5,2.3
			c0.5,0.9,0,2-1.1,2.1l-2.8,0.2l1.9,2c0.7,0.8,0.3,2-0.7,2.2l-2.7,0.7l2.2,1.7c0.8,0.6,0.7,1.9-0.2,2.3l-2.5,1.2l2.5,1.2
			c0.9,0.5,1,1.7,0.2,2.3l-2.2,1.6l2.7,0.8c1,0.3,1.3,1.5,0.6,2.2l-1.9,2l2.8,0.2c1,0.1,1.6,1.2,1,2.1l-1.5,2.3l2.8-0.3
			c1-0.1,1.8,0.9,1.4,1.9l-1.1,2.6l2.7-0.8c1-0.3,1.9,0.6,1.7,1.6l-0.6,2.7l2.5-1.2c0.9-0.5,2,0.2,1.9,1.2l-0.1,2.8l2.2-1.7
			c0.8-0.6,2-0.1,2.1,0.9l0.4,2.7l1.9-2c0.7-0.8,1.9-0.5,2.3,0.5l0.9,2.6l1.5-2.4c0.5-0.9,1.8-0.9,2.3,0l1.4,2.4l1-2.6
			c0.4-0.9,1.6-1.2,2.3-0.4l1.8,2.1l0.5-2.7c0.2-1,1.4-1.4,2.2-0.8l2.2,1.7l0-2.8c0-1,1.1-1.7,2-1.2l2.4,1.3l-0.5-2.7
			c-0.2-1,0.8-1.8,1.7-1.5l2.6,0.8l-1-2.6c-0.4-0.9,0.4-1.9,1.4-1.8l2.7,0.3l-1.5-2.3c-0.5-0.9,0-2,1.1-2.1l2.8-0.2l-1.9-2
			c-0.7-0.7-0.3-2,0.7-2.2l2.7-0.7l-2.2-1.7c-0.8-0.6-0.7-1.9,0.2-2.3l2.5-1.2l-2.5-1.2C134.6,128.7,134.5,127.5,135.3,126.9z
			 M120.9,113.9c1.2-1.3,3.1-1.3,4.4-0.2c1.3,1.2,1.3,3.1,0.2,4.4c-1.2,1.3-3.1,1.3-4.4,0.2C119.8,117.1,119.8,115.1,120.9,113.9z
			 M109.3,107.7c1.7-0.1,3.1,1.3,3.2,3c0.1,1.7-1.3,3.1-3,3.2c-1.7,0.1-3.1-1.3-3.2-3C106.2,109.2,107.6,107.8,109.3,107.7z
			 M93.7,114.8c1.2-1.3,3.1-1.3,4.4-0.2c1.3,1.2,1.3,3.1,0.2,4.4c-1.2,1.3-3.1,1.3-4.4,0.2C92.6,118,92.5,116.1,93.7,114.8z
			 M90.9,133.8c-1.7,0.1-3.1-1.3-3.2-3c-0.1-1.7,1.3-3.1,3-3.2c1.7-0.1,3.1,1.3,3.2,3C94,132.3,92.6,133.8,90.9,133.8z M99.2,146.3
			c-1.2,1.3-3.1,1.3-4.4,0.2c-1.3-1.2-1.3-3.1-0.2-4.4c1.2-1.3,3.1-1.3,4.4-0.2C100.3,143,100.4,145,99.2,146.3z M110.8,152.4
			c-1.7,0.1-3.1-1.3-3.2-3c-0.1-1.7,1.3-3.1,3-3.2c1.7-0.1,3.1,1.3,3.2,3C113.9,150.9,112.5,152.3,110.8,152.4z M118,137.4
			c-4.1,4.4-10.9,4.6-15.3,0.5c-4.4-4.1-4.6-10.9-0.5-15.3c4.1-4.4,10.9-4.6,15.3-0.5C121.8,126.2,122,133.1,118,137.4z
			 M126.4,145.3c-1.2,1.3-3.1,1.3-4.4,0.2c-1.3-1.2-1.3-3.1-0.2-4.4c1.2-1.3,3.1-1.3,4.4-0.2C127.5,142.1,127.6,144.1,126.4,145.3z
			 M129.4,132.5c-1.7,0.1-3.1-1.3-3.2-3c-0.1-1.7,1.3-3.1,3-3.2c1.7-0.1,3.1,1.3,3.2,3C132.5,131,131.1,132.4,129.4,132.5z"/>
		<path id="smallGear" class="st2" d="M150.7,86.3l1.7-1.1l-1.9-0.6c-0.7-0.2-0.9-1.1-0.4-1.6l1.5-1.4l-2-0.3
			c-0.7-0.1-1.1-0.9-0.7-1.5l1.2-1.6l-2,0.1c-0.7,0-1.2-0.7-0.9-1.4l0.8-1.7c0,0-0.1-0.1-0.1-0.1l-1.8,0.4c-0.7,0.2-1.4-0.5-1.2-1.2
			l0.5-1.9l-1.8,0.8c-0.7,0.3-1.4-0.2-1.4-1l0.1-2l-1.7,1.1c-0.6,0.4-1.4,0-1.5-0.7l-0.2-2l-1.4,1.4c-0.5,0.5-1.4,0.3-1.6-0.4
			l-0.6-1.9l-1.1,1.7c-0.4,0.6-1.3,0.6-1.7-0.1l-0.9-1.8l-0.8,1.8c-0.3,0.7-1.2,0.8-1.7,0.2l-1.2-1.6l-0.5,2c-0.2,0.7-1,1-1.6,0.5
			l-1.5-1.3l-0.1,2c0,0.7-0.8,1.2-1.5,0.8l-1.7-1l0.3,2c0.1,0.7-0.6,1.3-1.3,1.1l-1.9-0.7l0.6,1.9c0.2,0.7-0.4,1.4-1.1,1.3l-2-0.3
			l1,1.8c0.4,0.6-0.1,1.4-0.8,1.5l-2,0l1.3,1.5c0.5,0.6,0.2,1.4-0.6,1.6l-2,0.4l1.5,1.3c0.6,0.5,0.4,1.4-0.3,1.7l-1.9,0.8l1.8,1
			c0.6,0.4,0.7,1.3,0.1,1.7l-1.7,1.1l1.9,0.6c0.7,0.2,0.9,1.1,0.4,1.6l-1.5,1.4l2,0.3c0.7,0.1,1.1,0.9,0.7,1.5l-1.2,1.6l2-0.1
			c0.7,0,1.2,0.7,0.9,1.4l-0.9,1.8l2-0.5c0.7-0.2,1.4,0.5,1.2,1.2l-0.5,1.9l1.8-0.8c0.7-0.3,1.4,0.2,1.4,1l-0.1,2l1.7-1.1
			c0.6-0.4,1.4,0,1.5,0.7l0.2,2l1.4-1.4c0.5-0.5,1.4-0.3,1.6,0.4l0.6,1.9l1.1-1.7c0.4-0.6,1.3-0.6,1.7,0.1l0.9,1.8l0.8-1.8
			c0.3-0.7,1.2-0.8,1.7-0.2l1.2,1.6l0.5-2c0.2-0.7,1-1,1.6-0.5l1.5,1.3l0.1-2c0-0.7,0.8-1.2,1.5-0.8l1.7,1l-0.3-2
			c-0.1-0.7,0.6-1.3,1.3-1.1l1.9,0.7l-0.6-1.9c-0.2-0.7,0.4-1.4,1.1-1.3l2,0.3l-1-1.8c-0.4-0.6,0.1-1.4,0.8-1.5l2,0l-1.3-1.5
			c-0.5-0.6-0.2-1.4,0.6-1.6l2-0.4l-1.5-1.3c-0.6-0.5-0.4-1.4,0.3-1.7l1.9-0.8l-1.8-1C150.1,87.7,150,86.7,150.7,86.3z M140.7,76.4
			c0.9-0.9,2.3-0.8,3.2,0c0.9,0.9,0.8,2.3,0,3.2c-0.9,0.9-2.3,0.8-3.2,0C139.8,78.7,139.8,77.3,140.7,76.4z M132.4,71.5
			c1.2,0,2.2,1,2.2,2.3c0,1.2-1,2.2-2.3,2.2c-1.2,0-2.2-1-2.2-2.3C130.2,72.5,131.2,71.5,132.4,71.5z M120.9,76.1
			c0.9-0.9,2.3-0.8,3.2,0c0.9,0.9,0.8,2.3,0,3.2c-0.9,0.9-2.3,0.8-3.2,0C120,78.4,120,77,120.9,76.1z M118.2,89.8
			c-1.2,0-2.2-1-2.2-2.3c0-1.2,1-2.2,2.3-2.2c1.2,0,2.2,1,2.2,2.3C120.5,88.9,119.5,89.9,118.2,89.8z M123.8,99.1
			c-0.9,0.9-2.3,0.8-3.2,0c-0.9-0.9-0.8-2.3,0-3.2c0.9-0.9,2.3-0.8,3.2,0C124.7,96.8,124.7,98.3,123.8,99.1z M132,104
			c-1.2,0-2.2-1-2.2-2.3c0-1.2,1-2.2,2.3-2.2c1.2,0,2.2,1,2.2,2.3C134.3,103,133.2,104,132,104z M137.7,93.4c-3.1,3-8.1,3-11.1-0.2
			c-3-3.1-3-8.1,0.2-11.1c3.1-3,8.1-3,11.1,0.2C140.9,85.4,140.8,90.4,137.7,93.4z M143.5,99.4c-0.9,0.9-2.3,0.8-3.2,0
			c-0.9-0.9-0.8-2.3,0-3.2c0.9-0.9,2.3-0.8,3.2,0C144.5,97.1,144.4,98.6,143.5,99.4z M146.2,90.2c-1.2,0-2.2-1-2.2-2.3
			c0-1.2,1-2.2,2.3-2.2c1.2,0,2.2,1,2.2,2.3C148.4,89.2,147.4,90.2,146.2,90.2z"/>
	</g>
</g>
<g id="Layer_2">
</g>
</svg>
